 http://leetleech.org/images/92933828603142128960.jpg

Screens:
 
http://leetleech.org/images/53108113943183200260.jpg
 
http://leetleech.org/images/36528246425516097835.jpg
 
http://leetleech.org/images/21212651735153674999.jpg
 
http://leetleech.org/images/64191555515666135925.jpg
 
http://leetleech.org/images/44870558030289109478.jpg

Alternative:
 
http://www.postimg.com/image/38000/photo-37199.jpg
 
http://www.postimg.com/image/38000/photo-37200.jpg
 
http://www.postimg.com/image/38000/photo-37201.jpg
 
http://www.postimg.com/image/38000/photo-37202.jpg
 
http://www.postimg.com/image/38000/photo-37203.jpg

ScreenCaps:
 
http://www.postimg.com/image/38000/photo-37204.jpg

Unknown (2011) DVDRip XviD-MAX
Format                           : AVI
Format/Info                      : Audio Video Interleave
Format profile                   : OpenDML
File size                        : 1.24 GiB
Duration                         : 1h 48mn
Overall bit rate                 : 1 639 Kbps
Writing application              : VirtualDubMod 1.5.10.2 (build 2542/release)
Writing library                  : VirtualDubMod build 2542/release
Original source form             : MAX TORRENTZ
Copyright                        : SIGISMUNT

Video
ID                               : 0
Format                           : MPEG-4 Visual
Format profile                   : AdvancedSimple@L5
Format settings, BVOP            : Yes
Format settings, QPel            : No
Format settings, GMC             : No warppoints
Format settings, Matrix          : Custom
Codec ID                         : XVID
Codec ID/Hint                    : XviD
Duration                         : 1h 48mn
Bit rate                         : 1 385 Kbps
Width                            : 720 pixels
Height                           : 304 pixels
Display aspect ratio             : 2.35:1
Frame rate                       : 25.000 fps
Resolution                       : 24 bits
Colorimetry                      : 4:2:0
Scan type                        : Progressive
Bits/(Pixel*Frame)               : 0.258
Stream size                      : 1.07 GiB (86%)
Writing library                  : XviD 58

Audio
ID                               : 1
Format                           : MPEG Audio
Format version                   : Version 1
Format profile                   : Layer 3
Codec ID                         : 55
Codec ID/Hint                    : MP3
Duration                         : 1h 48mn
Bit rate mode                    : Constant
Bit rate                         : 224 Kbps
Channel(s)                       : 2 channels
Sampling rate                    : 48.0 KHz
Resolution                       : 16 bits
Stream size                      : 174 MiB (14%)
Alignment                        : Aligned on interleaves
Interleave, duration             : 541 ms (13.52 video frames)
Interleave, preload duration     : 216 ms
Writing library                  : LAME3.98.2
 
http://www.imdb.com/title/tt1401152/
 
Source: PAL vobs + filtered audio (additional volume,perfect a/v/sync quality,
sample included,english hardcoded subtitle on few original foreign parts)
This release is not seedbox supported , please seed it to the MAX

Unknown (2011) DVDRip XviD-MAX Torrent Free Download
 
http://thepiratebay.org/user/extremezone/0/7

How To Get Your Maxspeed (uTorrent)

Torrent Client - Preferences - Bandwidth - Number of connections - Set aprox. 500 for each 
Torrent Client - Preferences - BiTorrent - Protocol Encryption - Forced
Bandwidth Allocation - High (Set download/upload limit - Unlimited)
Stop Other Active Torrents - Start downloading and wait for connections.
Enjoy and Seed for at least 1:1 ratio. Don't forget to say thanks/leave reviews.
Before downloading you should check/google search sample "release name""sample".
Greets to all actual/future p2p/scene QUALITY groups and affiliate websites.
Don't trust IMDb robot or bad ratings,always watch some trailers first.
Ignore stupid comments/fake/mislabeled/no-DVDrips/CAM/TS/RAR uploads.
Please spread this release/torrent to your friends/forums/etc.
If you need translation subs visit some subtitles sites.
Report if you see online streaming or other spam links.
Recommended movie player VLC PLAYER.